<svg width="40" height="40" viewBox="0 0 40 40" fill="none" xmlns="http://www.w3.org/2000/svg">
<path d="M30 30H33.3333V40H6.66667V30H10V33.3333H30V30ZM39.82 22.0733C39.9233 22.48 40 22.8967 40 23.3333C40 23.9899 39.8707 24.6401 39.6194 25.2467C39.3681 25.8534 38.9998 26.4046 38.5355 26.8689C38.0712 27.3332 37.52 27.7015 36.9134 27.9527C36.3068 28.204 35.6566 28.3333 35 28.3333C34.3434 28.3333 33.6932 28.204 33.0866 27.9527C32.48 27.7015 31.9288 27.3332 31.4645 26.8689C31.0002 26.4046 30.6319 25.8534 30.3806 25.2467C30.1293 24.6401 30 23.9899 30 23.3333C30 24.6594 29.4732 25.9312 28.5355 26.8689C27.5979 27.8065 26.3261 28.3333 25 28.3333C23.6739 28.3333 22.4021 27.8065 21.4645 26.8689C20.5268 25.9312 20 24.6594 20 23.3333C20 24.6594 19.4732 25.9312 18.5355 26.8689C17.5979 27.8065 16.3261 28.3333 15 28.3333C13.6739 28.3333 12.4021 27.8065 11.4645 26.8689C10.5268 25.9312 10 24.6594 10 23.3333C10 23.9899 9.87067 24.6401 9.6194 25.2467C9.36812 25.8534 8.99983 26.4046 8.53553 26.8689C8.07124 27.3332 7.52004 27.7015 6.91342 27.9527C6.30679 28.204 5.65661 28.3333 5 28.3333C4.34339 28.3333 3.69321 28.204 3.08658 27.9527C2.47995 27.7015 1.92876 27.3332 1.46447 26.8689C1.00017 26.4046 0.631876 25.8534 0.380603 25.2467C0.129329 24.6401 -9.78424e-09 23.9899 0 23.3333C0 22.8967 0.0733332 22.48 0.176667 22.0733L3.33333 0H36.6667L39.82 22.0733Z" fill="white"/>
</svg>
