<svg width="45" height="32" viewBox="0 0 45 32" fill="none" xmlns="http://www.w3.org/2000/svg">
<path d="M38.25 4.5C38.25 2.025 36.225 0 33.75 0H29.25C28.0125 0 27 1.0125 27 2.25C27 3.4875 28.0125 4.5 29.25 4.5H33.75V10.4625L25.92 20.25H18V11.25C18 10.0125 16.9875 9 15.75 9H9C4.0275 9 0 13.0275 0 18V22.5C0 23.7375 1.0125 24.75 2.25 24.75H4.5C4.5 28.485 7.515 31.5 11.25 31.5C14.985 31.5 18 28.485 18 24.75H25.92C27.2925 24.75 28.575 24.12 29.43 23.0625L37.26 13.275C37.9125 12.465 38.25 11.475 38.25 10.4625V4.5ZM11.25 27C10.0125 27 9 25.9875 9 24.75H13.5C13.5 25.9875 12.4875 27 11.25 27Z" fill="white"/>
<path d="M9 2.25H15.75C16.9875 2.25 18 3.2625 18 4.5C18 5.7375 16.9875 6.75 15.75 6.75H9C7.7625 6.75 6.75 5.7375 6.75 4.5C6.75 3.2625 7.7625 2.25 9 2.25ZM38.25 18C34.515 18 31.5 21.015 31.5 24.75C31.5 28.485 34.515 31.5 38.25 31.5C41.985 31.5 45 28.485 45 24.75C45 21.015 41.985 18 38.25 18ZM38.25 27C37.0125 27 36 25.9875 36 24.75C36 23.5125 37.0125 22.5 38.25 22.5C39.4875 22.5 40.5 23.5125 40.5 24.75C40.5 25.9875 39.4875 27 38.25 27Z" fill="white"/>
</svg>
