<svg width="40" height="44" viewBox="0 0 40 44" fill="none" xmlns="http://www.w3.org/2000/svg">
<path d="M26.4706 27.0588C26.4706 27.6829 26.2227 28.2814 25.7814 28.7226C25.3402 29.1639 24.7417 29.4118 24.1176 29.4118C23.4936 29.4118 22.8951 29.1639 22.4539 28.7226C22.0126 28.2814 21.7647 27.6829 21.7647 27.0588C21.7647 26.4348 22.0126 25.8363 22.4539 25.3951C22.8951 24.9538 23.4936 24.7059 24.1176 24.7059C24.7417 24.7059 25.3402 24.9538 25.7814 25.3951C26.2227 25.8363 26.4706 26.4348 26.4706 27.0588ZM18.2353 27.0588C18.2353 27.6829 17.9874 28.2814 17.5461 28.7226C17.1049 29.1639 16.5064 29.4118 15.8824 29.4118C15.2583 29.4118 14.6598 29.1639 14.2186 28.7226C13.7773 28.2814 13.5294 27.6829 13.5294 27.0588C13.5294 26.4348 13.7773 25.8363 14.2186 25.3951C14.6598 24.9538 15.2583 24.7059 15.8824 24.7059C16.5064 24.7059 17.1049 24.9538 17.5461 25.3951C17.9874 25.8363 18.2353 26.4348 18.2353 27.0588Z" fill="white"/>
<path fill-rule="evenodd" clip-rule="evenodd" d="M20 16.4706C22.1841 16.4706 24.2788 15.6029 25.8232 14.0585C27.3676 12.5141 28.2353 10.4194 28.2353 8.23529C28.2353 6.05116 27.3676 3.95648 25.8232 2.41206C24.2788 0.867645 22.1841 0 20 0C17.8159 0 15.7212 0.867645 14.1768 2.41206C12.6324 3.95648 11.7647 6.05116 11.7647 8.23529C11.7647 10.4194 12.6324 12.5141 14.1768 14.0585C15.7212 15.6029 17.8159 16.4706 20 16.4706ZM20 4.70588C20.9361 4.70588 21.8338 5.07773 22.4957 5.73962C23.1576 6.40152 23.5294 7.29924 23.5294 8.23529C23.5294 9.17135 23.1576 10.0691 22.4957 10.731C21.8338 11.3929 20.9361 11.7647 20 11.7647C19.0639 11.7647 18.1662 11.3929 17.5043 10.731C16.8424 10.0691 16.4706 9.17135 16.4706 8.23529C16.4706 7.29924 16.8424 6.40152 17.5043 5.73962C18.1662 5.07773 19.0639 4.70588 20 4.70588Z" fill="white"/>
<path d="M20 30.5882C21.2481 30.5882 22.445 31.084 23.3276 31.9665C24.2101 32.8491 24.7059 34.046 24.7059 35.2941V38.8235C24.7059 40.0716 24.2101 41.2686 23.3276 42.1511C22.445 43.0336 21.2481 43.5294 20 43.5294C18.7519 43.5294 17.555 43.0336 16.6724 42.1511C15.7899 41.2686 15.2941 40.0716 15.2941 38.8235V35.2941C15.2941 34.046 15.7899 32.8491 16.6724 31.9665C17.555 31.084 18.7519 30.5882 20 30.5882Z" fill="white"/>
<path fill-rule="evenodd" clip-rule="evenodd" d="M31.7647 23.5294C31.7647 20.4092 30.5252 17.4168 28.3189 15.2105C26.1126 13.0042 23.1202 11.7647 20 11.7647C16.8798 11.7647 13.8874 13.0042 11.6811 15.2105C9.47479 17.4168 8.23529 20.4092 8.23529 23.5294V29.4118C8.23529 30.9719 8.85504 32.4681 9.9582 33.5712C11.0614 34.6744 12.5576 35.2941 14.1176 35.2941H25.8824C27.4424 35.2941 28.9386 34.6744 30.0418 33.5712C31.145 32.4681 31.7647 30.9719 31.7647 29.4118V23.5294ZM12.9412 23.5294C12.9412 21.6573 13.6849 19.8619 15.0087 18.5381C16.3324 17.2143 18.1279 16.4706 20 16.4706C21.8721 16.4706 23.6676 17.2143 24.9913 18.5381C26.3151 19.8619 27.0588 21.6573 27.0588 23.5294V29.4118C27.0588 29.7238 26.9349 30.023 26.7142 30.2437C26.4936 30.4643 26.1944 30.5882 25.8824 30.5882H14.1176C13.8056 30.5882 13.5064 30.4643 13.2858 30.2437C13.0651 30.023 12.9412 29.7238 12.9412 29.4118V23.5294Z" fill="white"/>
<path d="M32.9412 8.2353C32.3171 8.2353 31.7187 7.9874 31.2774 7.54614C30.8361 7.10488 30.5882 6.5064 30.5882 5.88236C30.5882 5.25832 30.8361 4.65984 31.2774 4.21858C31.7187 3.77732 32.3171 3.52942 32.9412 3.52942H37.6471C38.2711 3.52942 38.8696 3.77732 39.3108 4.21858C39.7521 4.65984 40 5.25832 40 5.88236C40 6.5064 39.7521 7.10488 39.3108 7.54614C38.8696 7.9874 38.2711 8.2353 37.6471 8.2353H32.9412ZM2.35294 8.2353C1.7289 8.2353 1.13042 7.9874 0.68916 7.54614C0.247898 7.10488 0 6.5064 0 5.88236C0 5.25832 0.247898 4.65984 0.68916 4.21858C1.13042 3.77732 1.7289 3.52942 2.35294 3.52942H7.05882C7.68286 3.52942 8.28134 3.77732 8.7226 4.21858C9.16387 4.65984 9.41177 5.25832 9.41177 5.88236C9.41177 6.5064 9.16387 7.10488 8.7226 7.54614C8.28134 7.9874 7.68286 8.2353 7.05882 8.2353H2.35294Z" fill="white"/>
<path d="M4.49412 7.16706L5.61412 3.74353L16.2588 5.77412L15.1365 9.2L4.49412 7.16706ZM23.7412 5.77412L24.8635 9.2L35.5059 7.16706L34.3859 3.74353L23.7412 5.77412Z" fill="white"/>
</svg>
