<svg width="36" height="36" viewBox="0 0 36 36" fill="none" xmlns="http://www.w3.org/2000/svg">
<path d="M18 0.222223C14.4839 0.222223 11.0467 1.26487 8.1232 3.21832C5.19966 5.17177 2.92103 7.94828 1.57548 11.1967C0.229918 14.4452 -0.122142 18.0197 0.563818 21.4683C1.24978 24.9168 2.94295 28.0845 5.42921 30.5708C7.91548 33.0571 11.0832 34.7502 14.5317 35.4362C17.9803 36.1221 21.5548 35.7701 24.8033 34.4245C28.0517 33.079 30.8282 30.8003 32.7817 27.8768C34.7351 24.9533 35.7778 21.5161 35.7778 18C35.7778 13.285 33.9048 8.76319 30.5708 5.42921C27.2368 2.09523 22.715 0.222223 18 0.222223ZM24.8889 23.7556C24.8082 23.8777 24.7041 23.9827 24.5827 24.0645C24.4613 24.1463 24.3249 24.2033 24.1813 24.2322C24.0378 24.2611 23.89 24.2613 23.7464 24.2329C23.6028 24.2045 23.4662 24.148 23.3444 24.0667L16.7889 19.6222V9.94445C16.7889 9.64976 16.906 9.36715 17.1143 9.15877C17.3227 8.9504 17.6053 8.83333 17.9 8.83333C18.1947 8.83333 18.4773 8.9504 18.6857 9.15877C18.8941 9.36715 19.0111 9.64976 19.0111 9.94445V18.4444L24.5667 22.2111C24.6897 22.291 24.7957 22.3944 24.8786 22.5154C24.9614 22.6364 25.0195 22.7726 25.0495 22.9162C25.0794 23.0598 25.0807 23.2079 25.0531 23.3519C25.0255 23.496 24.9697 23.6332 24.8889 23.7556ZM24.5 7.14444C22.9366 6.20213 21.1879 5.60916 19.3738 5.40624C17.5597 5.20331 15.7232 5.39522 13.9902 5.96881C12.2573 6.54239 10.6689 7.48407 9.33415 8.72924C7.99936 9.97441 6.94973 11.4936 6.25728 13.1826C5.56482 14.8715 5.24593 16.6903 5.32249 18.5141C5.39905 20.3379 5.86924 22.1236 6.7008 23.7486C7.53236 25.3736 8.70561 26.7994 10.1401 27.9284C11.5745 29.0573 13.2362 29.8626 15.0111 30.2889L14.6667 32.0333C12.6311 31.5595 10.7225 30.6496 9.07277 29.3664C7.42304 28.0832 6.07144 26.4573 5.11126 24.6009C4.15108 22.7445 3.6052 20.7018 3.5113 18.6139C3.41741 16.5259 3.77773 14.4425 4.5674 12.5074C5.35708 10.5723 6.55729 8.83162 8.08517 7.40551C9.61306 5.97941 11.4322 4.90186 13.4171 4.24726C15.402 3.59265 17.5053 3.37658 19.5818 3.61397C21.6583 3.85136 23.6585 4.53654 25.4444 5.62222L24.5 7.14444Z" fill="white"/>
</svg>
